<svg width="900" height="900" viewBox="0 0 900 900" fill="none" xmlns="http://www.w3.org/2000/svg">
<rect width="900" height="900" rx="72" fill="#171717"/>
<path d="M141 450V573.5C141 590.578 154.808 604.375 171.9 604.375H202.8V419.125H171.9C154.808 419.125 141 432.922 141 450ZM589.05 295.625H480.9V233.875C480.9 216.797 467.092 203 450 203C432.908 203 419.1 216.797 419.1 233.875V295.625H310.95C268.269 295.625 233.7 330.166 233.7 372.812V635.25C233.7 669.309 261.413 697 295.5 697H604.5C638.587 697 666.3 669.309 666.3 635.25V372.812C666.3 330.166 631.731 295.625 589.05 295.625ZM388.2 604.375H326.4V573.5H388.2V604.375ZM357.3 488.594C335.96 488.594 318.675 471.323 318.675 450C318.675 428.677 335.96 411.406 357.3 411.406C378.64 411.406 395.925 428.677 395.925 450C395.925 471.323 378.64 488.594 357.3 488.594ZM480.9 604.375H419.1V573.5H480.9V604.375ZM573.6 604.375H511.8V573.5H573.6V604.375ZM542.7 488.594C521.36 488.594 504.075 471.323 504.075 450C504.075 428.677 521.36 411.406 542.7 411.406C564.04 411.406 581.325 428.677 581.325 450C581.325 471.323 564.04 488.594 542.7 488.594ZM728.1 419.125H697.2V604.375H728.1C745.192 604.375 759 590.578 759 573.5V450C759 432.922 745.192 419.125 728.1 419.125Z" fill="#E63946"/>
</svg>
